<?xml version="1.0" standalone="no"?>
<!DOCTYPE svg PUBLIC "-//W3C//DTD SVG 20010904//EN"
 "http://www.w3.org/TR/2001/REC-SVG-20010904/DTD/svg10.dtd">
<svg version="1.0" xmlns="http://www.w3.org/2000/svg"
 width="500.000000pt" height="500.000000pt" viewBox="0 0 500.000000 500.000000"
 preserveAspectRatio="xMidYMid meet">

<g transform="translate(0.000000,500.000000) scale(0.100000,-0.100000)"
fill="#000000" stroke="none">
<path d="M1334 3196 c-3 -8 -4 -27 -1 -43 3 -24 4 -23 6 9 0 20 7 39 14 41 9
4 9 6 -1 6 -7 1 -15 -5 -18 -13z"/>
<path d="M1380 3206 c0 -2 7 -7 16 -10 8 -3 12 -2 9 4 -6 10 -25 14 -25 6z"/>
<path d="M1410 3172 c0 -7 -7 -12 -15 -12 -9 0 -15 -9 -15 -25 0 -15 6 -25 14
-25 9 0 16 -13 19 -32 l4 -33 1 31 c2 22 8 33 22 37 20 5 27 31 11 41 -5 3 -8
-2 -7 -12 1 -12 -8 -18 -26 -20 -32 -4 -37 14 -11 34 10 7 15 16 10 20 -4 4
-7 2 -7 -4z"/>
<path d="M1528 3143 c7 -3 16 -2 19 1 4 3 -2 6 -13 5 -11 0 -14 -3 -6 -6z"/>
<path d="M1601 3126 c2 -2 15 -9 29 -15 24 -11 24 -11 6 3 -16 13 -49 24 -35
12z"/>
<path d="M1342 3085 c0 -16 2 -22 5 -12 2 9 2 23 0 30 -3 6 -5 -1 -5 -18z"/>
<path d="M1680 3066 c0 -2 8 -10 18 -17 15 -13 16 -12 3 4 -13 16 -21 21 -21
13z"/>
<path d="M1351 3032 c-2 -21 28 -25 62 -8 27 13 29 16 10 16 -13 0 -23 -4 -23
-10 0 -14 -37 -12 -43 3 -4 9 -6 9 -6 -1z"/>
<path d="M1443 3014 c-15 -16 -17 -28 -3 -19 6 4 10 -6 10 -24 0 -37 -26 -47
-91 -34 -33 6 -45 14 -47 29 -3 19 1 21 50 18 l53 -3 -48 8 c-27 4 -53 14 -58
22 -6 10 -9 3 -9 -23 0 -37 -1 -38 -35 -38 -76 0 -125 -53 -125 -135 0 -44 12
-68 59 -120 20 -22 48 -56 63 -75 15 -19 28 -30 28 -25 0 6 -29 44 -65 85 -70
82 -84 118 -65 174 12 38 52 76 79 76 11 -1 10 -4 -7 -13 -47 -26 -67 -82 -51
-140 5 -20 32 -62 59 -94 45 -53 84 -123 60 -108 -6 4 -10 -2 -10 -11 0 -9
-11 -41 -26 -71 -15 -32 -23 -62 -19 -74 11 -35 78 -60 159 -60 137 0 164 30
126 140 -28 83 -23 122 26 187 60 78 74 107 74 152 0 85 -53 132 -134 117 -35
-7 -35 -7 -38 33 -2 32 -5 37 -15 26z m146 -89 c6 -3 15 -24 21 -45 14 -51 0
-105 -37 -146 -16 -16 -23 -23 -17 -15 33 46 46 86 41 130 -6 56 -33 81 -91
82 -38 1 -39 2 -11 8 28 7 72 0 94 -14z m-271 -17 c-3 -7 -18 -13 -34 -13 -22
0 -33 -7 -46 -32 -10 -18 -18 -45 -18 -59 0 -37 -24 -25 -28 15 -3 26 3 39 33
67 25 23 46 34 67 34 19 0 28 -4 26 -12z m173 -85 l21 -33 -26 0 c-17 0 -30 9
-41 28 l-15 27 6 -27 c6 -27 5 -28 -36 -28 -36 0 -41 3 -36 18 5 15 5 15 -8
-1 -8 -10 -22 -17 -32 -15 -15 3 -14 7 8 33 23 27 32 30 82 30 53 0 58 -2 77
-32z m-131 -60 c11 -17 11 -17 6 0 -5 14 1 17 39 17 38 0 43 -3 38 -17 -5 -16
-4 -16 9 1 8 10 23 17 33 14 17 -3 15 -8 -18 -43 -34 -36 -38 -37 -32 -15 l6
25 -16 -27 c-20 -35 -42 -30 -83 20 -31 38 -33 42 -14 42 12 0 26 -8 32 -17z
m120 -43 c-29 -33 -57 -60 -62 -60 -7 0 -6 5 1 13 6 8 8 17 4 21 -4 4 -1 5 7
1 10 -3 28 11 50 40 19 24 39 44 43 45 5 0 -14 -27 -43 -60z m26 -227 c10 -21
22 -39 27 -41 14 -7 7 -29 -16 -51 -31 -28 -108 -38 -176 -21 -59 14 -92 47
-83 83 5 20 6 19 14 -9 10 -40 53 -59 134 -59 60 0 114 18 114 39 0 6 -5 5
-12 -2 -20 -20 -27 -14 -25 21 1 17 -2 42 -6 55 -13 36 8 25 29 -15z m-41 -62
c8 -13 -24 -29 -46 -24 -33 9 -20 33 17 33 13 0 25 -4 29 -9z"/>
<path d="M1930 2656 l0 -176 86 0 c81 0 87 1 115 29 39 39 40 92 3 126 l-26
24 21 22 c29 31 27 81 -3 116 -23 26 -31 28 -110 32 l-86 3 0 -176z m164 118
c21 -20 20 -68 0 -85 -10 -8 -41 -14 -73 -14 l-56 0 -3 58 -3 57 60 0 c41 0
65 -5 75 -16z m-4 -147 c17 -8 26 -22 28 -43 5 -48 -18 -64 -94 -64 l-64 0 0
53 c0 30 3 57 7 60 11 12 97 7 123 -6z"/>
<path d="M3264 2806 c-21 -17 -28 -33 -28 -59 0 -28 -4 -37 -19 -39 -15 -2
-28 -25 -51 -85 -17 -45 -34 -84 -37 -87 -3 -4 -21 34 -39 83 l-34 90 -45 3
-46 3 -3 48 c-2 33 -7 47 -18 47 -10 0 -14 -13 -14 -50 0 -43 -3 -50 -20 -50
-11 0 -20 -7 -20 -15 0 -8 9 -15 20 -15 18 0 20 -7 20 -83 0 -69 3 -87 18
-100 24 -22 82 -23 82 -2 0 9 -9 15 -25 15 -33 0 -47 35 -43 109 3 54 4 56 33
59 30 3 32 1 73 -99 l42 -101 -30 -70 c-29 -68 -29 -69 -8 -66 17 2 34 34 91
178 39 96 72 177 74 179 2 3 13 -5 26 -17 12 -11 40 -28 62 -38 22 -9 48 -23
58 -32 21 -19 22 -65 1 -83 -26 -21 -80 -16 -108 10 -16 15 -31 21 -42 17 -15
-6 -15 -9 -2 -29 21 -31 56 -47 106 -47 83 0 134 92 82 148 -12 12 -48 36 -80
52 -43 22 -61 37 -66 55 -12 49 43 77 97 49 24 -12 34 -13 43 -4 8 9 5 16 -13
31 -34 28 -102 26 -137 -5z"/>
<path d="M1709 2783 l-24 -28 28 24 c25 23 32 31 24 31 -2 0 -14 -12 -28 -27z"/>
<path d="M3470 2760 c0 -43 -3 -50 -20 -50 -11 0 -20 -7 -20 -15 0 -8 9 -15
20 -15 18 0 20 -7 20 -83 0 -69 3 -87 18 -100 24 -22 82 -23 82 -2 0 9 -9 15
-25 15 -33 0 -47 35 -43 109 3 55 4 56 36 59 19 2 32 9 32 17 0 8 -13 15 -32
17 -32 3 -33 5 -36 51 -2 33 -7 47 -18 47 -10 0 -14 -13 -14 -50z"/>
<path d="M1659 2743 c-13 -16 -12 -17 4 -4 16 13 21 21 13 21 -2 0 -10 -8 -17
-17z"/>
<path d="M1640 2710 c0 -5 5 -10 11 -10 5 0 7 5 4 10 -3 6 -8 10 -11 10 -2 0
-4 -4 -4 -10z"/>
<path d="M2254 2710 c-41 -16 -74 -68 -74 -117 0 -38 5 -50 34 -79 28 -28 42
-34 76 -34 47 0 77 13 102 44 23 28 22 36 -2 36 -11 0 -20 -4 -20 -10 0 -13
-54 -40 -80 -40 -22 0 -80 50 -80 69 0 7 37 11 106 11 l106 0 -7 28 c-10 43
-34 73 -70 88 -38 16 -60 17 -91 4z m94 -46 c44 -31 28 -44 -53 -44 -41 0 -75
4 -75 9 0 17 52 51 79 51 15 0 37 -7 49 -16z"/>
<path d="M2505 2706 c-43 -19 -66 -49 -72 -94 -6 -44 14 -92 49 -116 28 -20
90 -20 127 -1 26 13 30 13 41 0 16 -19 60 -20 60 -1 0 7 -9 16 -20 19 -18 5
-20 14 -20 101 0 76 -3 96 -14 96 -8 0 -16 -5 -18 -10 -2 -7 -16 -5 -40 5 -45
18 -54 18 -93 1z m99 -47 c49 -38 28 -130 -32 -144 -41 -9 -81 10 -96 46 -17
40 -10 75 22 99 32 26 72 25 106 -1z"/>
<path d="M3643 2706 c-61 -28 -87 -99 -58 -160 21 -44 59 -66 116 -66 33 0 47
6 75 34 29 29 34 41 34 80 0 88 -88 147 -167 112z m112 -58 c32 -38 29 -81
-11 -115 -29 -27 -54 -29 -93 -8 -75 38 -43 155 43 155 26 0 40 -7 61 -32z"/>
<path d="M3908 2704 c-16 -8 -28 -10 -28 -4 0 5 -9 10 -20 10 -19 0 -20 -7
-20 -115 0 -108 1 -115 20 -115 18 0 20 7 20 78 0 69 3 81 23 100 13 12 33 22
45 22 15 0 22 6 22 20 0 24 -23 26 -62 4z"/>
<path d="M4042 2711 c-7 -4 -24 -6 -38 -3 l-24 4 0 -116 c0 -109 1 -116 20
-116 18 0 20 7 20 88 0 93 8 112 46 112 38 0 54 -36 54 -122 0 -63 3 -78 15
-78 12 0 15 15 15 78 0 86 16 122 54 122 38 0 46 -19 46 -112 0 -81 2 -88 20
-88 18 0 20 7 20 89 0 73 -3 93 -20 114 -27 34 -71 43 -108 21 -28 -16 -31
-16 -53 0 -26 18 -47 20 -67 7z"/>
<path d="M2710 2621 c0 -74 3 -92 21 -115 17 -21 29 -26 65 -26 71 0 84 20 84
135 0 78 -3 95 -15 95 -12 0 -15 -16 -15 -83 0 -72 -3 -87 -20 -102 -16 -15
-26 -17 -48 -9 -26 9 -27 11 -30 102 -2 84 -5 92 -22 92 -18 0 -20 -7 -20 -89z"/>
<path d="M1680 2665 c0 -8 2 -15 4 -15 2 0 6 7 10 15 3 8 1 15 -4 15 -6 0 -10
-7 -10 -15z"/>
<path d="M1571 2584 c0 -11 3 -14 6 -6 3 7 2 16 -1 19 -3 4 -6 -2 -5 -13z"/>
<path d="M1731 2584 c0 -11 3 -14 6 -6 3 7 2 16 -1 19 -3 4 -6 -2 -5 -13z"/>
</g>
</svg>
